<?xml version="1.0" encoding="UTF-8"?>
<svg xmlns="http://www.w3.org/2000/svg" xmlns:xlink="http://www.w3.org/1999/xlink" width="322.09" height="286.169" viewBox="0 0 322.09 286.169">
<defs>
<g>
<g id="glyph-0-0">
<path d="M 0.5625 -3.40625 C 0.5625 -1.34375 2.171875 0.21875 4.03125 0.21875 C 5.65625 0.21875 6.625 -1.171875 6.625 -2.328125 C 6.625 -2.421875 6.625 -2.5 6.5 -2.5 C 6.390625 -2.5 6.390625 -2.4375 6.375 -2.328125 C 6.296875 -0.90625 5.234375 -0.09375 4.140625 -0.09375 C 3.53125 -0.09375 1.578125 -0.421875 1.578125 -3.40625 C 1.578125 -6.375 3.53125 -6.71875 4.140625 -6.71875 C 5.21875 -6.71875 6.109375 -5.8125 6.3125 -4.359375 C 6.328125 -4.21875 6.328125 -4.1875 6.46875 -4.1875 C 6.625 -4.1875 6.625 -4.21875 6.625 -4.421875 L 6.625 -6.78125 C 6.625 -6.953125 6.625 -7.03125 6.515625 -7.03125 C 6.484375 -7.03125 6.4375 -7.03125 6.359375 -6.90625 L 5.859375 -6.171875 C 5.5 -6.53125 4.984375 -7.03125 4.03125 -7.03125 C 2.15625 -7.03125 0.5625 -5.4375 0.5625 -3.40625 Z M 0.5625 -3.40625 "/>
</g>
<g id="glyph-0-1">
<path d="M 1.109375 -2.515625 C 1.171875 -4 2.015625 -4.25 2.359375 -4.25 C 3.375 -4.25 3.484375 -2.90625 3.484375 -2.515625 Z M 1.109375 -2.296875 L 3.890625 -2.296875 C 4.109375 -2.296875 4.140625 -2.296875 4.140625 -2.515625 C 4.140625 -3.5 3.59375 -4.46875 2.359375 -4.46875 C 1.203125 -4.46875 0.28125 -3.4375 0.28125 -2.1875 C 0.28125 -0.859375 1.328125 0.109375 2.46875 0.109375 C 3.6875 0.109375 4.140625 -1 4.140625 -1.1875 C 4.140625 -1.28125 4.0625 -1.3125 4 -1.3125 C 3.921875 -1.3125 3.890625 -1.25 3.875 -1.171875 C 3.53125 -0.140625 2.625 -0.140625 2.53125 -0.140625 C 2.03125 -0.140625 1.640625 -0.4375 1.40625 -0.8125 C 1.109375 -1.28125 1.109375 -1.9375 1.109375 -2.296875 Z M 1.109375 -2.296875 "/>
</g>
<g id="glyph-0-2">
<path d="M 1.765625 -6.921875 L 0.328125 -6.8125 L 0.328125 -6.5 C 1.03125 -6.5 1.109375 -6.4375 1.109375 -5.9375 L 1.109375 -0.75 C 1.109375 -0.3125 1 -0.3125 0.328125 -0.3125 L 0.328125 0 C 0.65625 -0.015625 1.1875 -0.03125 1.4375 -0.03125 C 1.6875 -0.03125 2.171875 -0.015625 2.546875 0 L 2.546875 -0.3125 C 1.875 -0.3125 1.765625 -0.3125 1.765625 -0.75 Z M 1.765625 -6.921875 "/>
</g>
<g id="glyph-0-3">
<path d="M 6.1875 -5.828125 C 6.328125 -6.203125 6.59375 -6.484375 7.28125 -6.5 L 7.28125 -6.8125 C 6.96875 -6.78125 6.5625 -6.78125 6.3125 -6.78125 C 6.015625 -6.78125 5.4375 -6.796875 5.171875 -6.8125 L 5.171875 -6.5 C 5.6875 -6.484375 5.90625 -6.234375 5.90625 -6 C 5.90625 -5.921875 5.875 -5.859375 5.859375 -5.796875 L 4.03125 -1 L 2.125 -6.03125 C 2.0625 -6.171875 2.0625 -6.1875 2.0625 -6.203125 C 2.0625 -6.5 2.625 -6.5 2.875 -6.5 L 2.875 -6.8125 C 2.515625 -6.78125 1.828125 -6.78125 1.453125 -6.78125 C 0.984375 -6.78125 0.546875 -6.796875 0.1875 -6.8125 L 0.1875 -6.5 C 0.84375 -6.5 1.03125 -6.5 1.171875 -6.125 L 3.484375 0 C 3.546875 0.1875 3.59375 0.21875 3.734375 0.21875 C 3.890625 0.21875 3.921875 0.171875 3.96875 0.03125 Z M 6.1875 -5.828125 "/>
</g>
<g id="glyph-0-4">
<path d="M 1.671875 -3.3125 L 1.671875 -4.40625 L 0.28125 -4.296875 L 0.28125 -3.984375 C 0.984375 -3.984375 1.0625 -3.921875 1.0625 -3.421875 L 1.0625 -0.75 C 1.0625 -0.3125 0.953125 -0.3125 0.28125 -0.3125 L 0.28125 0 C 0.671875 -0.015625 1.140625 -0.03125 1.421875 -0.03125 C 1.8125 -0.03125 2.28125 -0.03125 2.6875 0 L 2.6875 -0.3125 L 2.46875 -0.3125 C 1.734375 -0.3125 1.71875 -0.421875 1.71875 -0.78125 L 1.71875 -2.3125 C 1.71875 -3.296875 2.140625 -4.1875 2.890625 -4.1875 C 2.953125 -4.1875 2.984375 -4.1875 3 -4.171875 C 2.96875 -4.171875 2.765625 -4.046875 2.765625 -3.78125 C 2.765625 -3.515625 2.984375 -3.359375 3.203125 -3.359375 C 3.375 -3.359375 3.625 -3.484375 3.625 -3.796875 C 3.625 -4.109375 3.3125 -4.40625 2.890625 -4.40625 C 2.15625 -4.40625 1.796875 -3.734375 1.671875 -3.3125 Z M 1.671875 -3.3125 "/>
</g>
<g id="glyph-0-5">
<path d="M 1.71875 -3.984375 L 3.15625 -3.984375 L 3.15625 -4.296875 L 1.71875 -4.296875 L 1.71875 -6.125 L 1.46875 -6.125 C 1.46875 -5.3125 1.171875 -4.25 0.1875 -4.203125 L 0.1875 -3.984375 L 1.03125 -3.984375 L 1.03125 -1.234375 C 1.03125 -0.015625 1.96875 0.109375 2.328125 0.109375 C 3.03125 0.109375 3.3125 -0.59375 3.3125 -1.234375 L 3.3125 -1.796875 L 3.0625 -1.796875 L 3.0625 -1.25 C 3.0625 -0.515625 2.765625 -0.140625 2.390625 -0.140625 C 1.71875 -0.140625 1.71875 -1.046875 1.71875 -1.21875 Z M 1.71875 -3.984375 "/>
</g>
<g id="glyph-0-6">
<path d="M 2.859375 -2.34375 C 3.15625 -2.71875 3.53125 -3.203125 3.78125 -3.46875 C 4.09375 -3.828125 4.5 -3.984375 4.96875 -3.984375 L 4.96875 -4.296875 C 4.703125 -4.28125 4.40625 -4.265625 4.140625 -4.265625 C 3.84375 -4.265625 3.3125 -4.28125 3.1875 -4.296875 L 3.1875 -3.984375 C 3.40625 -3.96875 3.484375 -3.84375 3.484375 -3.671875 C 3.484375 -3.515625 3.375 -3.390625 3.328125 -3.328125 L 2.71875 -2.546875 L 1.9375 -3.5625 C 1.84375 -3.65625 1.84375 -3.671875 1.84375 -3.734375 C 1.84375 -3.890625 2 -3.984375 2.1875 -3.984375 L 2.1875 -4.296875 C 1.9375 -4.28125 1.28125 -4.265625 1.109375 -4.265625 C 0.90625 -4.265625 0.4375 -4.28125 0.171875 -4.296875 L 0.171875 -3.984375 C 0.875 -3.984375 0.875 -3.984375 1.34375 -3.375 L 2.328125 -2.09375 L 1.390625 -0.90625 C 0.921875 -0.328125 0.328125 -0.3125 0.125 -0.3125 L 0.125 0 C 0.375 -0.015625 0.6875 -0.03125 0.953125 -0.03125 C 1.234375 -0.03125 1.65625 -0.015625 1.890625 0 L 1.890625 -0.3125 C 1.671875 -0.34375 1.609375 -0.46875 1.609375 -0.625 C 1.609375 -0.84375 1.890625 -1.171875 2.5 -1.890625 L 3.265625 -0.890625 C 3.34375 -0.78125 3.46875 -0.625 3.46875 -0.5625 C 3.46875 -0.46875 3.375 -0.3125 3.109375 -0.3125 L 3.109375 0 C 3.40625 -0.015625 3.96875 -0.03125 4.1875 -0.03125 C 4.453125 -0.03125 4.84375 -0.015625 5.140625 0 L 5.140625 -0.3125 C 4.609375 -0.3125 4.421875 -0.328125 4.203125 -0.625 Z M 2.859375 -2.34375 "/>
</g>
<g id="glyph-0-7">
<path d="M 2.078125 -1.9375 C 2.296875 -1.890625 3.109375 -1.734375 3.109375 -1.015625 C 3.109375 -0.515625 2.765625 -0.109375 1.984375 -0.109375 C 1.140625 -0.109375 0.78125 -0.671875 0.59375 -1.53125 C 0.5625 -1.65625 0.5625 -1.6875 0.453125 -1.6875 C 0.328125 -1.6875 0.328125 -1.625 0.328125 -1.453125 L 0.328125 -0.125 C 0.328125 0.046875 0.328125 0.109375 0.4375 0.109375 C 0.484375 0.109375 0.5 0.09375 0.6875 -0.09375 C 0.703125 -0.109375 0.703125 -0.125 0.890625 -0.3125 C 1.328125 0.09375 1.78125 0.109375 1.984375 0.109375 C 3.125 0.109375 3.59375 -0.5625 3.59375 -1.28125 C 3.59375 -1.796875 3.296875 -2.109375 3.171875 -2.21875 C 2.84375 -2.546875 2.453125 -2.625 2.03125 -2.703125 C 1.46875 -2.8125 0.8125 -2.9375 0.8125 -3.515625 C 0.8125 -3.875 1.0625 -4.28125 1.921875 -4.28125 C 3.015625 -4.28125 3.078125 -3.375 3.09375 -3.078125 C 3.09375 -2.984375 3.1875 -2.984375 3.203125 -2.984375 C 3.34375 -2.984375 3.34375 -3.03125 3.34375 -3.21875 L 3.34375 -4.234375 C 3.34375 -4.390625 3.34375 -4.46875 3.234375 -4.46875 C 3.1875 -4.46875 3.15625 -4.46875 3.03125 -4.34375 C 3 -4.3125 2.90625 -4.21875 2.859375 -4.1875 C 2.484375 -4.46875 2.078125 -4.46875 1.921875 -4.46875 C 0.703125 -4.46875 0.328125 -3.796875 0.328125 -3.234375 C 0.328125 -2.890625 0.484375 -2.609375 0.75 -2.390625 C 1.078125 -2.140625 1.359375 -2.078125 2.078125 -1.9375 Z M 2.078125 -1.9375 "/>
</g>
<g id="glyph-0-8">
<path d="M 1.09375 -3.421875 L 1.09375 -0.75 C 1.09375 -0.3125 0.984375 -0.3125 0.3125 -0.3125 L 0.3125 0 C 0.671875 -0.015625 1.171875 -0.03125 1.453125 -0.03125 C 1.703125 -0.03125 2.21875 -0.015625 2.5625 0 L 2.5625 -0.3125 C 1.890625 -0.3125 1.78125 -0.3125 1.78125 -0.75 L 1.78125 -2.59375 C 1.78125 -3.625 2.5 -4.1875 3.125 -4.1875 C 3.765625 -4.1875 3.875 -3.65625 3.875 -3.078125 L 3.875 -0.75 C 3.875 -0.3125 3.765625 -0.3125 3.09375 -0.3125 L 3.09375 0 C 3.4375 -0.015625 3.953125 -0.03125 4.21875 -0.03125 C 4.46875 -0.03125 5 -0.015625 5.328125 0 L 5.328125 -0.3125 C 4.8125 -0.3125 4.5625 -0.3125 4.5625 -0.609375 L 4.5625 -2.515625 C 4.5625 -3.375 4.5625 -3.671875 4.25 -4.03125 C 4.109375 -4.203125 3.78125 -4.40625 3.203125 -4.40625 C 2.46875 -4.40625 2 -3.984375 1.71875 -3.359375 L 1.71875 -4.40625 L 0.3125 -4.296875 L 0.3125 -3.984375 C 1.015625 -3.984375 1.09375 -3.921875 1.09375 -3.421875 Z M 1.09375 -3.421875 "/>
</g>
<g id="glyph-0-9">
<path d="M 2.890625 -3.515625 C 3.703125 -3.78125 4.28125 -4.46875 4.28125 -5.265625 C 4.28125 -6.078125 3.40625 -6.640625 2.453125 -6.640625 C 1.453125 -6.640625 0.6875 -6.046875 0.6875 -5.28125 C 0.6875 -4.953125 0.90625 -4.765625 1.203125 -4.765625 C 1.5 -4.765625 1.703125 -4.984375 1.703125 -5.28125 C 1.703125 -5.765625 1.234375 -5.765625 1.09375 -5.765625 C 1.390625 -6.265625 2.046875 -6.390625 2.40625 -6.390625 C 2.828125 -6.390625 3.375 -6.171875 3.375 -5.28125 C 3.375 -5.15625 3.34375 -4.578125 3.09375 -4.140625 C 2.796875 -3.65625 2.453125 -3.625 2.203125 -3.625 C 2.125 -3.609375 1.890625 -3.59375 1.8125 -3.59375 C 1.734375 -3.578125 1.671875 -3.5625 1.671875 -3.46875 C 1.671875 -3.359375 1.734375 -3.359375 1.90625 -3.359375 L 2.34375 -3.359375 C 3.15625 -3.359375 3.53125 -2.6875 3.53125 -1.703125 C 3.53125 -0.34375 2.84375 -0.0625 2.40625 -0.0625 C 1.96875 -0.0625 1.21875 -0.234375 0.875 -0.8125 C 1.21875 -0.765625 1.53125 -0.984375 1.53125 -1.359375 C 1.53125 -1.71875 1.265625 -1.921875 0.984375 -1.921875 C 0.734375 -1.921875 0.421875 -1.78125 0.421875 -1.34375 C 0.421875 -0.4375 1.34375 0.21875 2.4375 0.21875 C 3.65625 0.21875 4.5625 -0.6875 4.5625 -1.703125 C 4.5625 -2.515625 3.921875 -3.296875 2.890625 -3.515625 Z M 2.890625 -3.515625 "/>
</g>
<g id="glyph-0-10">
<path d="M 1.359375 -0.78125 C 1.359375 -0.421875 1.328125 -0.3125 0.5625 -0.3125 L 0.328125 -0.3125 L 0.328125 0 L 6.078125 0 L 6.5 -2.578125 L 6.25 -2.578125 C 6 -1.03125 5.765625 -0.3125 4.0625 -0.3125 L 2.734375 -0.3125 C 2.265625 -0.3125 2.25 -0.375 2.25 -0.703125 L 2.25 -3.375 L 3.140625 -3.375 C 4.109375 -3.375 4.21875 -3.046875 4.21875 -2.203125 L 4.46875 -2.203125 L 4.46875 -4.84375 L 4.21875 -4.84375 C 4.21875 -3.984375 4.109375 -3.671875 3.140625 -3.671875 L 2.25 -3.671875 L 2.25 -6.078125 C 2.25 -6.40625 2.265625 -6.46875 2.734375 -6.46875 L 4.015625 -6.46875 C 5.546875 -6.46875 5.8125 -5.921875 5.96875 -4.53125 L 6.21875 -4.53125 L 5.9375 -6.78125 L 0.328125 -6.78125 L 0.328125 -6.46875 L 0.5625 -6.46875 C 1.328125 -6.46875 1.359375 -6.359375 1.359375 -6 Z M 1.359375 -0.78125 "/>
</g>
<g id="glyph-0-11">
<path d="M 3.78125 -0.546875 L 3.78125 0.109375 L 5.25 0 L 5.25 -0.3125 C 4.5625 -0.3125 4.46875 -0.375 4.46875 -0.875 L 4.46875 -6.921875 L 3.046875 -6.8125 L 3.046875 -6.5 C 3.734375 -6.5 3.8125 -6.4375 3.8125 -5.9375 L 3.8125 -3.78125 C 3.53125 -4.140625 3.09375 -4.40625 2.5625 -4.40625 C 1.390625 -4.40625 0.34375 -3.421875 0.34375 -2.140625 C 0.34375 -0.875 1.3125 0.109375 2.453125 0.109375 C 3.09375 0.109375 3.53125 -0.234375 3.78125 -0.546875 Z M 3.78125 -3.21875 L 3.78125 -1.171875 C 3.78125 -1 3.78125 -0.984375 3.671875 -0.8125 C 3.375 -0.328125 2.9375 -0.109375 2.5 -0.109375 C 2.046875 -0.109375 1.6875 -0.375 1.453125 -0.75 C 1.203125 -1.15625 1.171875 -1.71875 1.171875 -2.140625 C 1.171875 -2.5 1.1875 -3.09375 1.46875 -3.546875 C 1.6875 -3.859375 2.0625 -4.1875 2.609375 -4.1875 C 2.953125 -4.1875 3.375 -4.03125 3.671875 -3.59375 C 3.78125 -3.421875 3.78125 -3.40625 3.78125 -3.21875 Z M 3.78125 -3.21875 "/>
</g>
<g id="glyph-0-12">
<path d="M 2.9375 -6.375 C 2.9375 -6.625 2.9375 -6.640625 2.703125 -6.640625 C 2.078125 -6 1.203125 -6 0.890625 -6 L 0.890625 -5.6875 C 1.09375 -5.6875 1.671875 -5.6875 2.1875 -5.953125 L 2.1875 -0.78125 C 2.1875 -0.421875 2.15625 -0.3125 1.265625 -0.3125 L 0.953125 -0.3125 L 0.953125 0 C 1.296875 -0.03125 2.15625 -0.03125 2.5625 -0.03125 C 2.953125 -0.03125 3.828125 -0.03125 4.171875 0 L 4.171875 -0.3125 L 3.859375 -0.3125 C 2.953125 -0.3125 2.9375 -0.421875 2.9375 -0.78125 Z M 2.9375 -6.375 "/>
</g>
<g id="glyph-0-13">
<path d="M 1.265625 -0.765625 L 2.328125 -1.796875 C 3.875 -3.171875 4.46875 -3.703125 4.46875 -4.703125 C 4.46875 -5.84375 3.578125 -6.640625 2.359375 -6.640625 C 1.234375 -6.640625 0.5 -5.71875 0.5 -4.828125 C 0.5 -4.28125 1 -4.28125 1.03125 -4.28125 C 1.203125 -4.28125 1.546875 -4.390625 1.546875 -4.8125 C 1.546875 -5.0625 1.359375 -5.328125 1.015625 -5.328125 C 0.9375 -5.328125 0.921875 -5.328125 0.890625 -5.3125 C 1.109375 -5.96875 1.65625 -6.328125 2.234375 -6.328125 C 3.140625 -6.328125 3.5625 -5.515625 3.5625 -4.703125 C 3.5625 -3.90625 3.078125 -3.125 2.515625 -2.5 L 0.609375 -0.375 C 0.5 -0.265625 0.5 -0.234375 0.5 0 L 4.203125 0 L 4.46875 -1.734375 L 4.234375 -1.734375 C 4.171875 -1.4375 4.109375 -1 4 -0.84375 C 3.9375 -0.765625 3.28125 -0.765625 3.0625 -0.765625 Z M 1.265625 -0.765625 "/>
</g>
<g id="glyph-0-14">
<path d="M 2.9375 -1.640625 L 2.9375 -0.78125 C 2.9375 -0.421875 2.90625 -0.3125 2.171875 -0.3125 L 1.96875 -0.3125 L 1.96875 0 C 2.375 -0.03125 2.890625 -0.03125 3.3125 -0.03125 C 3.734375 -0.03125 4.25 -0.03125 4.671875 0 L 4.671875 -0.3125 L 4.453125 -0.3125 C 3.71875 -0.3125 3.703125 -0.421875 3.703125 -0.78125 L 3.703125 -1.640625 L 4.6875 -1.640625 L 4.6875 -1.953125 L 3.703125 -1.953125 L 3.703125 -6.484375 C 3.703125 -6.6875 3.703125 -6.75 3.53125 -6.75 C 3.453125 -6.75 3.421875 -6.75 3.34375 -6.625 L 0.28125 -1.953125 L 0.28125 -1.640625 Z M 2.984375 -1.953125 L 0.5625 -1.953125 L 2.984375 -5.671875 Z M 2.984375 -1.953125 "/>
</g>
<g id="glyph-0-15">
<path d="M 4.46875 -2 C 4.46875 -3.1875 3.65625 -4.1875 2.578125 -4.1875 C 2.109375 -4.1875 1.671875 -4.03125 1.3125 -3.671875 L 1.3125 -5.625 C 1.515625 -5.5625 1.84375 -5.5 2.15625 -5.5 C 3.390625 -5.5 4.09375 -6.40625 4.09375 -6.53125 C 4.09375 -6.59375 4.0625 -6.640625 3.984375 -6.640625 C 3.984375 -6.640625 3.953125 -6.640625 3.90625 -6.609375 C 3.703125 -6.515625 3.21875 -6.3125 2.546875 -6.3125 C 2.15625 -6.3125 1.6875 -6.390625 1.21875 -6.59375 C 1.140625 -6.625 1.125 -6.625 1.109375 -6.625 C 1 -6.625 1 -6.546875 1 -6.390625 L 1 -3.4375 C 1 -3.265625 1 -3.1875 1.140625 -3.1875 C 1.21875 -3.1875 1.234375 -3.203125 1.28125 -3.265625 C 1.390625 -3.421875 1.75 -3.96875 2.5625 -3.96875 C 3.078125 -3.96875 3.328125 -3.515625 3.40625 -3.328125 C 3.5625 -2.953125 3.59375 -2.578125 3.59375 -2.078125 C 3.59375 -1.71875 3.59375 -1.125 3.34375 -0.703125 C 3.109375 -0.3125 2.734375 -0.0625 2.28125 -0.0625 C 1.5625 -0.0625 0.984375 -0.59375 0.8125 -1.171875 C 0.84375 -1.171875 0.875 -1.15625 0.984375 -1.15625 C 1.3125 -1.15625 1.484375 -1.40625 1.484375 -1.640625 C 1.484375 -1.890625 1.3125 -2.140625 0.984375 -2.140625 C 0.84375 -2.140625 0.5 -2.0625 0.5 -1.609375 C 0.5 -0.75 1.1875 0.21875 2.296875 0.21875 C 3.453125 0.21875 4.46875 -0.734375 4.46875 -2 Z M 4.46875 -2 "/>
</g>
</g>
</defs>
<path fill="none" stroke-width="0.19925" stroke-linecap="butt" stroke-linejoin="miter" stroke="rgb(89.99939%, 89.99939%, 89.99939%)" stroke-opacity="1" stroke-miterlimit="10" d="M 0.00115625 0.00125 L 226.774594 0.00125 M 0.00115625 7.087188 L 226.774594 7.087188 M 0.00115625 14.173125 L 226.774594 14.173125 M 0.00115625 21.259063 L 226.774594 21.259063 M 0.00115625 28.345 L 226.774594 28.345 M 0.00115625 35.434844 L 226.774594 35.434844 M 0.00115625 42.520781 L 226.774594 42.520781 M 0.00115625 49.606719 L 226.774594 49.606719 M 0.00115625 56.692656 L 226.774594 56.692656 M 0.00115625 63.778594 L 226.774594 63.778594 M 0.00115625 70.868438 L 226.774594 70.868438 M 0.00115625 77.954375 L 226.774594 77.954375 M 0.00115625 85.040313 L 226.774594 85.040313 M 0.00115625 92.12625 L 226.774594 92.12625 M 0.00115625 99.212188 L 226.774594 99.212188 M 0.00115625 106.302031 L 226.774594 106.302031 M 0.00115625 113.387969 L 226.774594 113.387969 M 0.00115625 120.473906 L 226.774594 120.473906 M 0.00115625 127.559844 L 226.774594 127.559844 M 0.00115625 134.645781 L 226.774594 134.645781 M 0.00115625 141.735625 L 226.774594 141.735625 M 0.00115625 148.821563 L 226.774594 148.821563 M 0.00115625 155.9075 L 226.774594 155.9075 M 0.00115625 162.993438 L 226.774594 162.993438 M 0.00115625 170.079375 L 226.774594 170.079375 M 0.00115625 177.169219 L 226.774594 177.169219 M 0.00115625 184.255156 L 226.774594 184.255156 M 0.00115625 191.341094 L 226.774594 191.341094 M 0.00115625 198.427031 L 226.774594 198.427031 M 0.00115625 205.512969 L 226.774594 205.512969 M 0.00115625 212.598906 L 226.774594 212.598906 M 0.00115625 219.68875 L 226.774594 219.68875 M 0.00115625 226.762969 L 226.774594 226.762969 M 0.00115625 0.00125 L 0.00115625 226.774688 M 7.087094 0.00125 L 7.087094 226.774688 M 14.173031 0.00125 L 14.173031 226.774688 M 21.258969 0.00125 L 21.258969 226.774688 M 28.344906 0.00125 L 28.344906 226.774688 M 35.43475 0.00125 L 35.43475 226.774688 M 42.520688 0.00125 L 42.520688 226.774688 M 49.606625 0.00125 L 49.606625 226.774688 M 56.692563 0.00125 L 56.692563 226.774688 M 63.7785 0.00125 L 63.7785 226.774688 M 70.868344 0.00125 L 70.868344 226.774688 M 77.954281 0.00125 L 77.954281 226.774688 M 85.040219 0.00125 L 85.040219 226.774688 M 92.126156 0.00125 L 92.126156 226.774688 M 99.212094 0.00125 L 99.212094 226.774688 M 106.301938 0.00125 L 106.301938 226.774688 M 113.387875 0.00125 L 113.387875 226.774688 M 120.473813 0.00125 L 120.473813 226.774688 M 127.55975 0.00125 L 127.55975 226.774688 M 134.645688 0.00125 L 134.645688 226.774688 M 141.735531 0.00125 L 141.735531 226.774688 M 148.821469 0.00125 L 148.821469 226.774688 M 155.907406 0.00125 L 155.907406 226.774688 M 162.993344 0.00125 L 162.993344 226.774688 M 170.079281 0.00125 L 170.079281 226.774688 M 177.169125 0.00125 L 177.169125 226.774688 M 184.255063 0.00125 L 184.255063 226.774688 M 191.341 0.00125 L 191.341 226.774688 M 198.426938 0.00125 L 198.426938 226.774688 M 205.512875 0.00125 L 205.512875 226.774688 M 212.598813 0.00125 L 212.598813 226.774688 M 219.688656 0.00125 L 219.688656 226.774688 M 226.762875 0.00125 L 226.762875 226.774688 " transform="matrix(1, 0, 0, -1, 47.659, 256.47)"/>
<g fill="rgb(0%, 0%, 0%)" fill-opacity="1">
<use xlink:href="#glyph-0-0" x="132.361" y="19.092"/>
<use xlink:href="#glyph-0-1" x="139.55599" y="19.092"/>
<use xlink:href="#glyph-0-2" x="143.983369" y="19.092"/>
<use xlink:href="#glyph-0-2" x="146.750979" y="19.092"/>
</g>
<g fill="rgb(0%, 0%, 0%)" fill-opacity="1">
<use xlink:href="#glyph-0-3" x="152.836136" y="19.092"/>
</g>
<g fill="rgb(0%, 0%, 0%)" fill-opacity="1">
<use xlink:href="#glyph-0-1" x="159.48119" y="19.092"/>
<use xlink:href="#glyph-0-4" x="163.908569" y="19.092"/>
<use xlink:href="#glyph-0-5" x="167.81092" y="19.092"/>
<use xlink:href="#glyph-0-1" x="171.685375" y="19.092"/>
<use xlink:href="#glyph-0-6" x="176.112754" y="19.092"/>
<use xlink:href="#glyph-0-1" x="181.371014" y="19.092"/>
<use xlink:href="#glyph-0-7" x="185.798394" y="19.092"/>
</g>
<path fill="none" stroke-width="0.79701" stroke-linecap="butt" stroke-linejoin="miter" stroke="rgb(0%, 0%, 0%)" stroke-opacity="1" stroke-miterlimit="10" d="M 0.00115625 0.00125 L 0.00115625 226.774688 L 226.774594 226.774688 L 226.774594 0.00125 Z M 0.00115625 0.00125 " transform="matrix(1, 0, 0, -1, 47.659, 256.47)"/>
<path fill-rule="nonzero" fill="rgb(0%, 0%, 0%)" fill-opacity="1" d="M 163.039062 143.082031 C 163.039062 141.984375 162.148438 141.089844 161.046875 141.089844 C 159.945312 141.089844 159.054688 141.984375 159.054688 143.082031 C 159.054688 144.183594 159.945312 145.074219 161.046875 145.074219 C 162.148438 145.074219 163.039062 144.183594 163.039062 143.082031 Z M 163.039062 143.082031 "/>
<g fill="rgb(0%, 0%, 0%)" fill-opacity="1">
<use xlink:href="#glyph-0-0" x="164.565" y="153.412"/>
<use xlink:href="#glyph-0-1" x="171.75999" y="153.412"/>
<use xlink:href="#glyph-0-8" x="176.187369" y="153.412"/>
</g>
<g fill="rgb(0%, 0%, 0%)" fill-opacity="1">
<use xlink:href="#glyph-0-5" x="181.443637" y="153.412"/>
<use xlink:href="#glyph-0-1" x="185.318092" y="153.412"/>
<use xlink:href="#glyph-0-4" x="189.745472" y="153.412"/>
</g>
<g fill="rgb(0%, 0%, 0%)" fill-opacity="1">
<use xlink:href="#glyph-0-3" x="164.565" y="165.367"/>
</g>
<g fill="rgb(0%, 0%, 0%)" fill-opacity="1">
<use xlink:href="#glyph-0-1" x="171.210054" y="165.367"/>
<use xlink:href="#glyph-0-4" x="175.637434" y="165.367"/>
<use xlink:href="#glyph-0-5" x="179.539784" y="165.367"/>
<use xlink:href="#glyph-0-1" x="183.414239" y="165.367"/>
<use xlink:href="#glyph-0-6" x="187.841619" y="165.367"/>
</g>
<g fill="rgb(0%, 0%, 0%)" fill-opacity="1">
<use xlink:href="#glyph-0-9" x="196.417425" y="165.367"/>
</g>
<path fill-rule="nonzero" fill="rgb(0%, 0%, 0%)" fill-opacity="1" d="M 49.652344 256.46875 C 49.652344 255.371094 48.757812 254.476562 47.660156 254.476562 C 46.558594 254.476562 45.667969 255.371094 45.667969 256.46875 C 45.667969 257.570312 46.558594 258.460938 47.660156 258.460938 C 48.757812 258.460938 49.652344 257.570312 49.652344 256.46875 Z M 49.652344 256.46875 "/>
<g fill="rgb(0%, 0%, 0%)" fill-opacity="1">
<use xlink:href="#glyph-0-10" x="7.306" y="266.908"/>
<use xlink:href="#glyph-0-8" x="14.086546" y="266.908"/>
<use xlink:href="#glyph-0-11" x="19.621766" y="266.908"/>
</g>
<g fill="rgb(0%, 0%, 0%)" fill-opacity="1">
<use xlink:href="#glyph-0-12" x="28.474532" y="266.908"/>
</g>
<g fill="rgb(0%, 0%, 0%)" fill-opacity="1">
<use xlink:href="#glyph-0-3" x="7.306" y="278.863"/>
</g>
<g fill="rgb(0%, 0%, 0%)" fill-opacity="1">
<use xlink:href="#glyph-0-1" x="13.951054" y="278.863"/>
<use xlink:href="#glyph-0-4" x="18.378434" y="278.863"/>
<use xlink:href="#glyph-0-5" x="22.280784" y="278.863"/>
<use xlink:href="#glyph-0-1" x="26.155239" y="278.863"/>
<use xlink:href="#glyph-0-6" x="30.582619" y="278.863"/>
</g>
<g fill="rgb(0%, 0%, 0%)" fill-opacity="1">
<use xlink:href="#glyph-0-12" x="39.158425" y="278.863"/>
</g>
<path fill-rule="nonzero" fill="rgb(0%, 0%, 0%)" fill-opacity="1" d="M 49.652344 29.695312 C 49.652344 28.59375 48.757812 27.703125 47.660156 27.703125 C 46.558594 27.703125 45.667969 28.59375 45.667969 29.695312 C 45.667969 30.796875 46.558594 31.6875 47.660156 31.6875 C 48.757812 31.6875 49.652344 30.796875 49.652344 29.695312 Z M 49.652344 29.695312 "/>
<g fill="rgb(0%, 0%, 0%)" fill-opacity="1">
<use xlink:href="#glyph-0-10" x="7.306" y="14.224"/>
<use xlink:href="#glyph-0-8" x="14.086546" y="14.224"/>
<use xlink:href="#glyph-0-11" x="19.621766" y="14.224"/>
</g>
<g fill="rgb(0%, 0%, 0%)" fill-opacity="1">
<use xlink:href="#glyph-0-13" x="28.474532" y="14.224"/>
</g>
<g fill="rgb(0%, 0%, 0%)" fill-opacity="1">
<use xlink:href="#glyph-0-3" x="7.306" y="26.179"/>
</g>
<g fill="rgb(0%, 0%, 0%)" fill-opacity="1">
<use xlink:href="#glyph-0-1" x="13.951054" y="26.179"/>
<use xlink:href="#glyph-0-4" x="18.378434" y="26.179"/>
<use xlink:href="#glyph-0-5" x="22.280784" y="26.179"/>
<use xlink:href="#glyph-0-1" x="26.155239" y="26.179"/>
<use xlink:href="#glyph-0-6" x="30.582619" y="26.179"/>
</g>
<g fill="rgb(0%, 0%, 0%)" fill-opacity="1">
<use xlink:href="#glyph-0-13" x="39.158425" y="26.179"/>
</g>
<path fill-rule="nonzero" fill="rgb(0%, 0%, 0%)" fill-opacity="1" d="M 276.425781 256.46875 C 276.425781 255.371094 275.535156 254.476562 274.433594 254.476562 C 273.332031 254.476562 272.441406 255.371094 272.441406 256.46875 C 272.441406 257.570312 273.332031 258.460938 274.433594 258.460938 C 275.535156 258.460938 276.425781 257.570312 276.425781 256.46875 Z M 276.425781 256.46875 "/>
<g fill="rgb(0%, 0%, 0%)" fill-opacity="1">
<use xlink:href="#glyph-0-10" x="277.95" y="266.908"/>
<use xlink:href="#glyph-0-8" x="284.730546" y="266.908"/>
<use xlink:href="#glyph-0-11" x="290.265766" y="266.908"/>
</g>
<g fill="rgb(0%, 0%, 0%)" fill-opacity="1">
<use xlink:href="#glyph-0-9" x="299.118532" y="266.908"/>
</g>
<g fill="rgb(0%, 0%, 0%)" fill-opacity="1">
<use xlink:href="#glyph-0-3" x="277.95" y="278.863"/>
</g>
<g fill="rgb(0%, 0%, 0%)" fill-opacity="1">
<use xlink:href="#glyph-0-1" x="284.595054" y="278.863"/>
<use xlink:href="#glyph-0-4" x="289.022434" y="278.863"/>
<use xlink:href="#glyph-0-5" x="292.924784" y="278.863"/>
<use xlink:href="#glyph-0-1" x="296.799239" y="278.863"/>
<use xlink:href="#glyph-0-6" x="301.226619" y="278.863"/>
</g>
<g fill="rgb(0%, 0%, 0%)" fill-opacity="1">
<use xlink:href="#glyph-0-14" x="309.802425" y="278.863"/>
</g>
<path fill-rule="nonzero" fill="rgb(0%, 0%, 0%)" fill-opacity="1" d="M 276.425781 29.695312 C 276.425781 28.59375 275.535156 27.703125 274.433594 27.703125 C 273.332031 27.703125 272.441406 28.59375 272.441406 29.695312 C 272.441406 30.796875 273.332031 31.6875 274.433594 31.6875 C 275.535156 31.6875 276.425781 30.796875 276.425781 29.695312 Z M 276.425781 29.695312 "/>
<g fill="rgb(0%, 0%, 0%)" fill-opacity="1">
<use xlink:href="#glyph-0-10" x="277.95" y="14.224"/>
<use xlink:href="#glyph-0-8" x="284.730546" y="14.224"/>
<use xlink:href="#glyph-0-11" x="290.265766" y="14.224"/>
</g>
<g fill="rgb(0%, 0%, 0%)" fill-opacity="1">
<use xlink:href="#glyph-0-14" x="299.118532" y="14.224"/>
</g>
<g fill="rgb(0%, 0%, 0%)" fill-opacity="1">
<use xlink:href="#glyph-0-3" x="277.95" y="26.179"/>
</g>
<g fill="rgb(0%, 0%, 0%)" fill-opacity="1">
<use xlink:href="#glyph-0-1" x="284.595054" y="26.179"/>
<use xlink:href="#glyph-0-4" x="289.022434" y="26.179"/>
<use xlink:href="#glyph-0-5" x="292.924784" y="26.179"/>
<use xlink:href="#glyph-0-1" x="296.799239" y="26.179"/>
<use xlink:href="#glyph-0-6" x="301.226619" y="26.179"/>
</g>
<g fill="rgb(0%, 0%, 0%)" fill-opacity="1">
<use xlink:href="#glyph-0-15" x="309.802425" y="26.179"/>
</g>
</svg>
